<svg width="617" height="197" viewBox="0 0 617 197" fill="none" xmlns="http://www.w3.org/2000/svg">
<g clip-path="url(#clip0_1_2)">
<path d="M165.569 17.9007H98.4463C76.305 17.9007 56.1701 26.9649 41.5671 41.5678C26.9642 56.1708 17.8999 76.3057 17.8999 98.4471C17.8999 120.588 26.9642 140.723 41.5671 155.326C56.1701 169.929 76.305 178.993 98.4463 178.993H165.569C169.253 178.993 172.607 177.481 175.044 175.044C177.48 172.608 178.996 169.254 178.996 165.57V98.4471C178.996 94.7635 177.484 91.4094 175.044 88.9728C172.607 86.5362 169.253 85.0238 165.569 85.0238H98.6782C94.9947 85.0238 91.6406 86.5362 89.204 88.9728C86.7674 91.4094 85.255 94.7635 85.255 98.4471C85.255 102.131 86.7674 105.485 89.204 107.921C91.6406 110.358 94.9947 111.87 98.6782 111.87H152.143V152.144H98.4463C83.7157 152.144 70.2857 146.081 60.5493 136.344C50.8129 126.608 44.7499 113.178 44.7499 98.4471C44.7499 83.7164 50.8129 70.2864 60.5493 60.55C70.2857 50.8136 83.7157 44.7506 98.4463 44.7506H165.569C169.253 44.7506 172.607 43.2382 175.044 40.8016C177.48 38.3649 178.996 35.0108 178.996 31.3273C178.996 27.6438 177.484 24.2896 175.044 21.853C172.607 19.4164 169.253 17.904 165.569 17.904V17.9007ZM98.4463 0.000705832H165.569C174.193 0.000705832 182.024 3.52289 187.697 9.19602C193.37 14.8692 196.893 22.7033 196.893 31.3239C196.893 39.9479 193.37 47.7821 187.697 53.4518C182.024 59.125 174.19 62.6471 165.569 62.6471H98.4463C88.6562 62.6471 79.7095 66.697 73.2029 73.2036C66.6963 79.7102 62.6464 88.6535 62.6464 98.4471C62.6464 108.237 66.6963 117.184 73.2029 123.69C79.7095 130.197 88.6562 134.247 98.4463 134.247H134.246V129.774H98.6816C90.0576 129.774 82.2268 126.251 76.5537 120.578C70.8806 114.905 67.3584 107.071 67.3584 98.4504C67.3584 89.8264 70.8806 81.9956 76.5537 76.3225C82.2268 70.6494 90.061 67.1272 98.6816 67.1272H165.573C174.197 67.1272 182.028 70.6494 187.701 76.3225C193.374 81.9956 196.896 89.8298 196.896 98.4504V165.574C196.896 174.197 193.374 182.028 187.701 187.701C182.028 193.375 174.193 196.897 165.573 196.897H98.4497C71.3679 196.897 46.7529 185.823 28.9135 167.983C11.074 150.144 0 125.529 0 98.4471C0 71.3652 11.074 46.7503 28.9135 28.9108C46.7529 11.0714 71.3679 -0.00265503 98.4497 -0.00265503L98.4463 0.000705832Z" fill="#3B82F6"/>
</g>
<defs>
<clipPath id="clip0_1_2">
<rect width="616.54" height="196.894" fill="white"/>
</clipPath>
</defs>
</svg>
