<svg width="617" height="197" viewBox="0 0 617 197" fill="none" xmlns="http://www.w3.org/2000/svg">
<g clip-path="url(#clip0_1_2)">
<path d="M245.04 0.000705832C253.664 0.000705832 261.495 3.52289 267.168 9.19602C272.841 14.8692 276.364 22.7033 276.364 31.3239V165.57C276.364 174.194 272.841 182.025 267.168 187.698C261.495 193.371 253.661 196.893 245.04 196.893C236.416 196.893 228.586 193.371 222.909 187.698C217.236 182.025 213.714 174.191 213.714 165.57V31.3239C213.714 22.7 217.236 14.8692 222.909 9.19602C228.582 3.52289 236.416 0.000705832 245.04 0.000705832ZM254.515 21.8497C252.078 19.413 248.724 17.9007 245.04 17.9007C241.357 17.9007 238.003 19.413 235.566 21.8497C233.129 24.2863 231.614 27.6404 231.614 31.3239V165.57C231.614 169.254 233.126 172.608 235.566 175.044C238.003 177.481 241.357 178.993 245.04 178.993C248.724 178.993 252.078 177.481 254.515 175.044C256.951 172.608 258.467 169.254 258.467 165.57V31.3239C258.467 27.6404 256.955 24.2863 254.515 21.8497ZM165.569 17.9007H98.4463C76.305 17.9007 56.1701 26.9649 41.5671 41.5678C26.9642 56.1708 17.8999 76.3057 17.8999 98.4471C17.8999 120.588 26.9642 140.723 41.5671 155.326C56.1701 169.929 76.305 178.993 98.4463 178.993H165.569C169.253 178.993 172.607 177.481 175.044 175.044C177.48 172.608 178.996 169.254 178.996 165.57V98.4471C178.996 94.7635 177.484 91.4094 175.044 88.9728C172.607 86.5362 169.253 85.0238 165.569 85.0238H98.6782C94.9947 85.0238 91.6406 86.5362 89.204 88.9728C86.7674 91.4094 85.255 94.7635 85.255 98.4471C85.255 102.131 86.7674 105.485 89.204 107.921C91.6406 110.358 94.9947 111.87 98.6782 111.87H152.143V152.144H98.4463C83.7157 152.144 70.2857 146.081 60.5493 136.344C50.8129 126.608 44.7499 113.178 44.7499 98.4471C44.7499 83.7164 50.8129 70.2864 60.5493 60.55C70.2857 50.8136 83.7157 44.7506 98.4463 44.7506H165.569C169.253 44.7506 172.607 43.2382 175.044 40.8016C177.48 38.3649 178.996 35.0108 178.996 31.3273C178.996 27.6438 177.484 24.2896 175.044 21.853C172.607 19.4164 169.253 17.904 165.569 17.904V17.9007ZM98.4463 0.000705832H165.569C174.193 0.000705832 182.024 3.52289 187.697 9.19602C193.37 14.8692 196.893 22.7033 196.893 31.3239C196.893 39.9479 193.37 47.7821 187.697 53.4518C182.024 59.125 174.19 62.6471 165.569 62.6471H98.4463C88.6562 62.6471 79.7095 66.697 73.2029 73.2036C66.6963 79.7102 62.6464 88.6535 62.6464 98.4471C62.6464 108.237 66.6963 117.184 73.2029 123.69C79.7095 130.197 88.6562 134.247 98.4463 134.247H134.246V129.774H98.6816C90.0576 129.774 82.2268 126.251 76.5537 120.578C70.8806 114.905 67.3584 107.071 67.3584 98.4504C67.3584 89.8264 70.8806 81.9956 76.5537 76.3225C82.2268 70.6494 90.061 67.1272 98.6816 67.1272H165.573C174.197 67.1272 182.028 70.6494 187.701 76.3225C193.374 81.9956 196.896 89.8298 196.896 98.4504V165.574C196.896 174.197 193.374 182.028 187.701 187.701C182.028 193.375 174.193 196.897 165.573 196.897H98.4497C71.3679 196.897 46.7529 185.823 28.9135 167.983C11.074 150.144 0 125.529 0 98.4471C0 71.3652 11.074 46.7503 28.9135 28.9108C46.7529 11.0714 71.3679 -0.00265503 98.4497 -0.00265503L98.4463 0.000705832ZM369.261 67.1238H391.634C392.196 67.1238 392.747 66.8549 393.174 66.4281C393.601 66.0013 393.869 65.4501 393.869 64.8888C393.869 64.3276 393.601 63.7764 393.174 63.3496C392.747 62.9227 392.196 62.6505 391.634 62.6505H355.835V67.1238H369.258H369.261ZM391.634 85.0238H337.938V44.7506H391.634C397.136 44.7506 402.181 47.0427 405.831 50.6926C409.481 54.3425 411.773 59.3838 411.773 64.8888C411.773 70.3906 409.481 75.4352 405.831 79.0851C402.181 82.735 397.14 85.0271 391.634 85.0271V85.0238ZM391.634 111.874C404.547 111.874 416.29 106.584 424.813 98.0639C433.333 89.5441 438.623 77.7979 438.623 64.8855C438.623 51.9731 433.333 40.2302 424.813 31.7104C416.293 23.1906 404.547 17.9007 391.634 17.9007H324.511C320.828 17.9007 317.474 19.413 315.037 21.8497C312.6 24.2863 311.088 27.6404 311.088 31.3239V165.57C311.088 169.254 312.6 172.608 315.037 175.044C317.474 177.481 320.828 178.993 324.511 178.993C328.195 178.993 331.549 177.481 333.986 175.044C336.422 172.608 337.935 169.254 337.935 165.57V111.87H391.631L391.634 111.874ZM437.466 110.721C425.71 122.477 409.487 129.774 391.634 129.774H355.835V165.574C355.835 174.197 352.312 182.028 346.639 187.701C340.966 193.375 333.132 196.897 324.511 196.897C315.887 196.897 308.057 193.375 302.38 187.701C296.707 182.028 293.185 174.194 293.185 165.574V31.3273C293.185 22.7033 296.707 14.8725 302.38 9.19938C308.053 3.52625 315.887 0.00406669 324.511 0.00406669H391.634C409.487 0.00406669 425.71 7.3005 437.466 19.0568C449.223 30.8131 456.519 47.036 456.519 64.8888C456.519 82.7417 449.223 98.9646 437.466 110.721ZM553.89 196.897C526.808 196.897 502.193 185.823 484.354 167.983C466.514 150.144 455.44 125.529 455.44 98.4471C455.44 71.3652 466.514 46.7503 484.354 28.9108C502.193 11.0714 526.808 -0.00265503 553.89 -0.00265503H585.213C593.837 -0.00265503 601.668 3.51953 607.341 9.19266C613.014 14.8658 616.536 22.7 616.536 31.3206C616.536 39.9445 613.014 47.7787 607.341 53.4485C601.668 59.1216 593.834 62.6438 585.213 62.6438H553.89C544.1 62.6438 535.153 66.6936 528.647 73.2003C522.14 79.7069 518.09 88.6501 518.09 98.4437C518.09 108.234 522.14 117.18 528.647 123.687C535.153 130.194 544.097 134.244 553.89 134.244H585.213C593.837 134.244 601.668 137.766 607.341 143.439C613.014 149.112 616.536 156.946 616.536 165.567C616.536 174.191 613.014 182.022 607.341 187.695C601.668 193.368 593.834 196.89 585.213 196.89H553.89V196.897ZM497.011 155.33C511.614 169.933 531.749 178.997 553.89 178.997H585.213C588.897 178.997 592.251 177.484 594.688 175.048C597.124 172.611 598.637 169.257 598.637 165.574C598.637 161.89 597.124 158.536 594.688 156.099C592.251 153.663 588.897 152.15 585.213 152.15H553.89C539.159 152.15 525.729 146.087 515.993 136.351C506.257 126.614 500.194 113.184 500.194 98.4538C500.194 83.7231 506.257 70.2931 515.993 60.5567C525.729 50.8203 539.159 44.7573 553.89 44.7573H585.213C588.897 44.7573 592.251 43.2449 594.688 40.8083C597.124 38.3717 598.637 35.0175 598.637 31.334C598.637 27.6505 597.124 24.2964 594.688 21.8597C592.251 19.4231 588.897 17.9107 585.213 17.9107H553.89C531.749 17.9107 511.614 26.975 497.011 41.5779C482.408 56.1809 473.344 76.3158 473.344 98.4571C473.344 120.598 482.408 140.733 497.011 155.336V155.33Z" fill="#3B82F6"/>
</g>
<defs>
<clipPath id="clip0_1_2">
<rect width="616.54" height="196.894" fill="white"/>
</clipPath>
</defs>
</svg>
