<?xml version="1.0" encoding="utf-8"?>
<!-- Generator: Adobe Illustrator 28.0.0, SVG Export Plug-In . SVG Version: 6.00 Build 0)  -->
<svg version="1.1" id="Layer_1" xmlns:xodm="http://www.corel.com/coreldraw/odm/2003"
	 xmlns="http://www.w3.org/2000/svg" xmlns:xlink="http://www.w3.org/1999/xlink" x="0px" y="0px" viewBox="0 0 439.2 131.9"
	 style="enable-background:new 0 0 439.2 131.9;" xml:space="preserve">
<style type="text/css">
	.st0{fill-rule:evenodd;clip-rule:evenodd;fill:#8AC1FF;}
	.st1{fill-rule:evenodd;clip-rule:evenodd;fill:#FEFEFE;}
	.st2{fill-rule:evenodd;clip-rule:evenodd;fill:#00A859;}
</style>
<path class="st0" d="M260.5,55.2v-8.7H301c2.4,0,4.3,1.9,4.3,4.3s-1.9,4.3-4.3,4.3H260.5z M260.5,64.4H301c3.9,0,7.7-1.7,10.2-4.6
	l0,0c2.1-2.4,3.4-5.5,3.4-9c0-7.5-6.1-13.6-13.6-13.6h-40.5h-9.3v45.2h9.3V64.4L260.5,64.4z M388.9,37.3h-40.3l0,0
	c-12.4,0-22.5,10.1-22.5,22.5s10.1,22.5,22.5,22.5l0,0h40.3v-9.4h-40.3l0,0l0,0c-7.2,0-13.1-5.9-13.1-13.1c0-7.2,5.9-13.1,13.1-13.1
	l0,0h40.3C388.9,46.7,388.9,37.3,388.9,37.3z M207.8,37.3h-40.3l0,0c-12.4,0-22.5,10.1-22.5,22.5s10.1,22.5,22.5,22.5l0,0h40.3V55
	h-31.4v9.3h22.1v8.5h-31l0,0l0,0c-7.2,0-13.1-5.9-13.1-13.1c0-7.2,5.9-13.1,13.1-13.1l0,0h40.3L207.8,37.3L207.8,37.3z M224.8,37.2
	h9.3v45.2h-9.3V37.2z"/>
<polygon class="st1" points="46,17.5 110.4,81.8 97.2,81.8 55.4,40.1 55.4,100.5 46,91.2 "/>
<polygon class="st0" points="55.4,40.1 64.7,49.4 64.7,91.2 132.9,91.2 132.9,100.5 55.4,100.5 "/>
<polygon class="st2" points="132.9,91.2 59.2,17.5 46,17.5 110.4,81.8 64.7,81.8 64.7,91.2 "/>
<path class="st0" d="M316.6,96c0-0.5-0.1-1-0.5-1.4c-0.3-0.4-0.8-0.5-1.2-0.5c-0.5,0-0.9,0.1-1.2,0.5c-0.3,0.4-0.4,0.9-0.4,1.4
	c0,0.5,0.1,1.1,0.4,1.5c0.3,0.4,0.8,0.5,1.3,0.5c0.5,0,0.9-0.1,1.2-0.5C316.5,97,316.6,96.5,316.6,96L316.6,96z M338.7,95.2
	c0-0.4-0.2-0.7-0.4-0.9c-0.3-0.3-0.7-0.4-1.1-0.4c-0.4,0-0.8,0.1-1.1,0.4c-0.3,0.2-0.4,0.6-0.5,0.9L338.7,95.2L338.7,95.2z
	 M367.8,96c0-0.5-0.1-1-0.5-1.4c-0.3-0.4-0.8-0.5-1.2-0.5c-0.5,0-0.9,0.1-1.2,0.5c-0.3,0.4-0.4,0.9-0.4,1.4c0,0.5,0.1,1.1,0.4,1.5
	c0.3,0.4,0.8,0.5,1.3,0.5c0.5,0,0.9-0.1,1.2-0.5C367.7,97,367.8,96.5,367.8,96L367.8,96z M377.5,96c0,0.5,0.2,1,0.6,1.4
	c0.4,0.4,0.8,0.6,1.3,0.6s1-0.2,1.3-0.6c0.4-0.4,0.5-0.9,0.5-1.4s-0.2-1-0.5-1.4c-0.4-0.4-0.8-0.6-1.3-0.6c-0.5,0-1,0.2-1.3,0.6
	C377.6,95,377.4,95.4,377.5,96L377.5,96z M316.6,98.1c-0.2,0.3-0.4,0.5-0.7,0.6c-0.4,0.2-0.8,0.3-1.2,0.3c-0.8,0-1.5-0.3-2-0.8
	c-0.6-0.6-0.8-1.4-0.8-2.2c0-0.8,0.2-1.6,0.7-2.2c0.5-0.6,1.2-0.8,2-0.8c0.4,0,0.9,0.1,1.2,0.3c0.3,0.2,0.5,0.4,0.7,0.6v-0.8h1.1
	v5.7h-1.1L316.6,98.1L316.6,98.1z M319.4,98.8v-9.5h1.2v9.5H319.4z M333.2,92.1c-0.4-0.4-0.8-0.8-1.3-1c-0.5-0.2-1-0.3-1.5-0.3
	c-0.5,0-0.9,0.1-1.3,0.3c-0.4,0.2-0.8,0.4-1.1,0.8c-0.3,0.3-0.6,0.7-0.7,1.1c-0.2,0.4-0.2,0.9-0.2,1.4c0,0.4,0,0.7,0.1,1.1
	c0.1,0.3,0.2,0.6,0.4,0.9c0.3,0.5,0.8,0.8,1.3,1.1c0.5,0.3,1,0.4,1.6,0.4c0.5,0,1-0.1,1.5-0.3c0.5-0.2,0.9-0.6,1.3-1l0.2-0.2V98l0,0
	c-0.4,0.3-0.9,0.6-1.4,0.7c-0.5,0.2-1,0.2-1.6,0.2c-0.5,0-0.9-0.1-1.4-0.2c-0.4-0.1-0.9-0.4-1.3-0.6c-0.6-0.4-1.1-1-1.5-1.7
	c-0.4-0.7-0.5-1.4-0.5-2.2c0-0.6,0.1-1.3,0.3-1.9c0.2-0.6,0.6-1.1,1.1-1.5c0.4-0.4,0.9-0.8,1.5-1c0.6-0.2,1.2-0.3,1.8-0.3
	c0.5,0,1,0.1,1.5,0.2c0.5,0.2,1,0.4,1.4,0.7l0,0v1.7L333.2,92.1L333.2,92.1z M335.6,96.2c0,0.5,0.1,1,0.5,1.3
	c0.3,0.4,0.8,0.5,1.2,0.5c0.3,0,0.7-0.1,0.9-0.3c0.3-0.2,0.6-0.5,0.8-0.9l0.1-0.1l0.9,0.6l0,0.1c-0.3,0.5-0.6,0.9-1.1,1.2
	c-0.5,0.3-1,0.4-1.5,0.4c-0.8,0-1.5-0.3-2.1-0.9c-0.6-0.6-0.8-1.4-0.8-2.2c0-0.8,0.2-1.6,0.8-2.2c0.6-0.6,1.2-0.9,2-0.9
	c0.8,0,1.5,0.2,2,0.8c0.6,0.6,0.7,1.4,0.7,2.2v0.3L335.6,96.2L335.6,96.2z M348.5,90.6c0-0.2,0.1-0.4,0.2-0.6
	c0.2-0.2,0.3-0.2,0.6-0.2c0.2,0,0.4,0.1,0.6,0.2c0.2,0.2,0.2,0.3,0.2,0.6c0,0.2-0.1,0.4-0.2,0.6c-0.2,0.2-0.3,0.2-0.6,0.2
	c-0.2,0-0.4-0.1-0.6-0.2C348.6,91,348.5,90.8,348.5,90.6z M348.7,98.8v-5.7h1.2v5.7H348.7z M354.9,90.6c0-0.2,0.1-0.4,0.2-0.6
	c0.2-0.2,0.3-0.2,0.6-0.2c0.2,0,0.4,0.1,0.6,0.2c0.2,0.2,0.2,0.3,0.2,0.6c0,0.2-0.1,0.4-0.2,0.6c-0.2,0.2-0.3,0.2-0.6,0.2
	c-0.2,0-0.4-0.1-0.6-0.2C355,91,354.9,90.8,354.9,90.6z M355.2,98.8v-5.7h1.1v5.7H355.2z M351.9,94.1h-1.1v-1h1.1v-1.5
	c0-0.5,0-1.4,0.4-1.9c0.3-0.4,0.8-0.5,1.3-0.5c0.1,0,0.3,0,0.4,0c0.1,0,0.3,0.1,0.4,0.1l0.1,0v1.2l-0.2-0.1
	c-0.1-0.1-0.2-0.1-0.3-0.1c-0.1,0-0.2,0-0.3,0c-0.2,0-0.4,0-0.5,0.2c-0.1,0.2-0.1,1-0.1,1.2v1.4h1.5v1H353v4.7h-1.2L351.9,94.1
	L351.9,94.1z M362.5,97.2v1.4l0,0c-0.3,0.2-0.6,0.3-0.9,0.3c-0.3,0.1-0.7,0.1-1,0.1c-0.8,0-1.5-0.2-2.1-0.8
	c-0.6-0.6-0.8-1.4-0.8-2.2c0-0.8,0.2-1.6,0.8-2.2c0.6-0.6,1.3-0.9,2.1-0.9c0.3,0,0.6,0,0.9,0.1c0.3,0.1,0.6,0.2,0.8,0.3l0.1,0v1.3
	l-0.2-0.1c-0.2-0.1-0.5-0.3-0.7-0.3c-0.2-0.1-0.5-0.1-0.7-0.1c-0.5,0-1,0.2-1.4,0.5c-0.4,0.4-0.5,0.9-0.5,1.5c0,0.5,0.2,1,0.5,1.3
	c0.4,0.4,0.8,0.5,1.3,0.5c0.3,0,0.5,0,0.8-0.1c0.3-0.1,0.6-0.3,0.8-0.5L362.5,97.2L362.5,97.2z M367.8,98.1
	c-0.2,0.3-0.4,0.5-0.7,0.6c-0.4,0.2-0.8,0.3-1.2,0.3c-0.8,0-1.5-0.3-2-0.8c-0.6-0.6-0.8-1.4-0.8-2.2c0-0.8,0.2-1.6,0.7-2.2
	c0.5-0.6,1.2-0.8,2-0.8c0.4,0,0.9,0.1,1.2,0.3c0.3,0.2,0.5,0.4,0.7,0.6v-0.8h1.1v5.7h-1.1L367.8,98.1L367.8,98.1z M370.7,94.1h-1v-1
	h1v-2.2h1.2v2.2h1v1h-1v4.7h-1.2V94.1z M373.5,90.6c0-0.2,0.1-0.4,0.2-0.6c0.2-0.2,0.3-0.2,0.6-0.2c0.2,0,0.4,0.1,0.6,0.2
	c0.2,0.2,0.2,0.3,0.2,0.6c0,0.2-0.1,0.4-0.2,0.6c-0.2,0.2-0.3,0.2-0.6,0.2c-0.2,0-0.4-0.1-0.6-0.2C373.6,91,373.5,90.8,373.5,90.6z
	 M373.8,98.8v-5.7h1.2v5.7H373.8z M376.2,96c0-0.4,0.1-0.8,0.2-1.2c0.2-0.4,0.4-0.7,0.7-1c0.3-0.3,0.6-0.5,1-0.7
	c0.4-0.2,0.8-0.2,1.2-0.2c0.4,0,0.8,0.1,1.2,0.2c0.4,0.2,0.7,0.4,1,0.7c0.3,0.3,0.5,0.6,0.7,1c0.2,0.4,0.2,0.8,0.2,1.2
	c0,0.4-0.1,0.8-0.2,1.2c-0.2,0.4-0.4,0.7-0.7,1c-0.3,0.3-0.6,0.5-1,0.7c-0.4,0.2-0.8,0.2-1.2,0.2c-0.4,0-0.8-0.1-1.2-0.2
	c-0.4-0.2-0.7-0.4-1-0.7c-0.3-0.3-0.5-0.6-0.7-1C376.3,96.8,376.2,96.4,376.2,96L376.2,96z M384.8,93.7c0.2-0.2,0.4-0.4,0.7-0.6
	c0.4-0.2,0.8-0.3,1.2-0.3c0.6,0,1.2,0.1,1.6,0.5c0.4,0.4,0.6,0.9,0.6,1.5v3.8h-1.2v-3.3c0-0.4-0.1-0.9-0.3-1.2
	c-0.2-0.3-0.6-0.4-1-0.4c-0.2,0-0.5,0-0.7,0.1c-0.2,0.1-0.4,0.2-0.5,0.4c-0.1,0.1-0.2,0.3-0.2,0.5c-0.1,0.3-0.1,0.7-0.1,0.9v2.9
	h-1.1v-5.7h1.1V93.7L384.8,93.7z M344.6,93.4l-0.3,0.7l-0.1,0c-0.1,0-0.2-0.1-0.3-0.1c-0.1,0-0.2,0-0.3,0c-0.4,0-0.8,0.1-1,0.5
	c-0.3,0.4-0.4,1.1-0.4,1.6v2.8h-1.1v-5.7h1V94c0.2-0.3,0.4-0.5,0.6-0.7c0.3-0.2,0.7-0.3,1.1-0.3c0.1,0,0.2,0,0.3,0
	c0.1,0,0.2,0,0.3,0.1l0.1,0l0,0h0.9v-2.2h1.2v2.2h1v1h-1v4.7h-1.2v-4.7h-1L344.6,93.4L344.6,93.4z M159.1,95.2
	c0-0.4-0.2-0.7-0.4-0.9c-0.3-0.3-0.7-0.4-1.1-0.4c-0.4,0-0.8,0.1-1.1,0.4c-0.3,0.2-0.4,0.6-0.5,0.9L159.1,95.2L159.1,95.2z
	 M162.3,96c0,0.5,0.2,1,0.6,1.4c0.4,0.4,0.8,0.6,1.3,0.6s1-0.2,1.3-0.6c0.4-0.4,0.5-0.9,0.5-1.4s-0.2-1-0.5-1.4
	c-0.4-0.4-0.8-0.6-1.3-0.6s-1,0.2-1.3,0.6C162.5,95,162.3,95.4,162.3,96L162.3,96z M177,96c0-0.5-0.1-1-0.5-1.4
	c-0.3-0.4-0.8-0.5-1.2-0.5c-0.5,0-0.9,0.1-1.2,0.5c-0.3,0.4-0.4,0.9-0.4,1.4c0,0.5,0.1,1.1,0.4,1.5c0.3,0.4,0.8,0.5,1.3,0.5
	c0.5,0,0.9-0.1,1.2-0.5C176.9,97,177,96.5,177,96L177,96z M187,96c0-0.5-0.1-1-0.5-1.4c-0.3-0.4-0.8-0.5-1.2-0.5
	c-0.5,0-0.9,0.1-1.2,0.5c-0.3,0.4-0.4,0.9-0.4,1.4c0,0.5,0.1,1.1,0.4,1.5c0.3,0.4,0.8,0.5,1.3,0.5c0.5,0,0.9-0.1,1.2-0.5
	C186.9,97,187,96.5,187,96L187,96z M238.3,95.2c0-0.4-0.2-0.7-0.4-0.9c-0.3-0.3-0.7-0.4-1.1-0.4s-0.8,0.1-1.1,0.4
	c-0.3,0.2-0.4,0.6-0.5,0.9L238.3,95.2L238.3,95.2z M245.1,96c0,0.5,0.2,1,0.6,1.4c0.4,0.4,0.8,0.6,1.3,0.6c0.5,0,1-0.2,1.3-0.6
	c0.4-0.4,0.5-0.9,0.5-1.4s-0.2-1-0.5-1.4c-0.4-0.4-0.8-0.6-1.3-0.6c-0.5,0-1,0.2-1.3,0.6C245.3,95,245.1,95.4,245.1,96z M259.8,93.7
	h0.4c0.5,0,1.3,0,1.7-0.3c0.3-0.2,0.4-0.6,0.4-1c0-0.4-0.1-0.8-0.4-1.1c-0.4-0.3-1.3-0.3-1.7-0.3h-0.4L259.8,93.7L259.8,93.7z
	 M269.6,96c0,0.5,0.2,1,0.6,1.4c0.4,0.4,0.8,0.6,1.3,0.6c0.5,0,1-0.2,1.3-0.6c0.4-0.4,0.5-0.9,0.5-1.4s-0.2-1-0.5-1.4
	c-0.4-0.4-0.8-0.6-1.3-0.6c-0.5,0-1,0.2-1.3,0.6C269.8,95,269.6,95.4,269.6,96z M283.2,95.2c0-0.4-0.2-0.7-0.4-0.9
	c-0.3-0.3-0.7-0.4-1.1-0.4c-0.4,0-0.8,0.1-1.1,0.4c-0.3,0.2-0.4,0.6-0.5,0.9L283.2,95.2L283.2,95.2z M299.4,96c0,0.5,0.2,1,0.6,1.4
	c0.4,0.4,0.8,0.6,1.3,0.6c0.5,0,1-0.2,1.3-0.6c0.4-0.4,0.5-0.9,0.5-1.4s-0.2-1-0.5-1.4c-0.4-0.4-0.8-0.6-1.3-0.6s-1,0.2-1.3,0.6
	C299.5,95,299.3,95.4,299.4,96L299.4,96z M152.7,95.2h-2.5v-1.1h3.8v0.4c0,1.2-0.3,2.4-1.2,3.3c-0.9,0.9-2,1.2-3.3,1.2
	c-0.4,0-0.8,0-1.2-0.1c-0.4-0.1-0.7-0.2-1.1-0.4c-0.7-0.4-1.3-1-1.7-1.7c-0.4-0.8-0.6-1.6-0.6-2.4c0-0.7,0.1-1.4,0.4-2
	c0.2-0.6,0.6-1.1,1.1-1.6c0.4-0.4,0.9-0.7,1.4-0.9c0.6-0.2,1.2-0.3,1.8-0.3c0.8,0,1.5,0.1,2.2,0.5c0.7,0.3,1.2,0.8,1.6,1.4l0.1,0.1
	l-1,0.8l-0.1-0.1c-0.3-0.5-0.7-0.9-1.1-1.2c-0.5-0.3-1-0.4-1.6-0.4c-0.9,0-1.8,0.3-2.4,1c-0.7,0.7-0.9,1.6-0.9,2.6
	c0,1,0.3,1.8,0.9,2.5c0.6,0.7,1.5,1,2.4,1c0.8,0,1.5-0.2,2.1-0.8C152.3,96.6,152.6,96,152.7,95.2L152.7,95.2z M156,96.2
	c0,0.5,0.1,1,0.5,1.3c0.3,0.4,0.8,0.5,1.2,0.5c0.3,0,0.7-0.1,0.9-0.3c0.3-0.2,0.6-0.5,0.8-0.9l0.1-0.1l0.9,0.6l0,0.1
	c-0.3,0.5-0.6,0.9-1.1,1.2c-0.5,0.3-1,0.4-1.5,0.4c-0.8,0-1.5-0.3-2.1-0.9c-0.6-0.6-0.8-1.4-0.8-2.2c0-0.8,0.2-1.6,0.8-2.2
	c0.6-0.6,1.2-0.9,2-0.9c0.8,0,1.5,0.2,2,0.8c0.6,0.6,0.7,1.4,0.7,2.2v0.3L156,96.2L156,96.2z M161.1,96c0-0.4,0.1-0.8,0.2-1.2
	c0.2-0.4,0.4-0.7,0.7-1c0.3-0.3,0.6-0.5,1-0.7c0.4-0.2,0.8-0.2,1.2-0.2c0.4,0,0.8,0.1,1.2,0.2c0.4,0.2,0.7,0.4,1,0.7
	c0.3,0.3,0.5,0.6,0.7,1c0.2,0.4,0.2,0.8,0.2,1.2c0,0.4-0.1,0.8-0.2,1.2s-0.4,0.7-0.7,1c-0.3,0.3-0.6,0.5-1,0.7
	c-0.4,0.2-0.8,0.2-1.2,0.2c-0.4,0-0.8-0.1-1.2-0.2c-0.4-0.2-0.7-0.4-1-0.7c-0.3-0.3-0.5-0.6-0.7-1C161.2,96.8,161.1,96.4,161.1,96
	L161.1,96z M169.6,94c0.2-0.3,0.4-0.5,0.6-0.7c0.3-0.2,0.7-0.3,1.1-0.3c0.1,0,0.2,0,0.3,0c0.1,0,0.2,0,0.3,0.1l0.1,0l-0.4,1l-0.1,0
	c-0.1,0-0.2-0.1-0.3-0.1c-0.1,0-0.2,0-0.3,0c-0.4,0-0.8,0.1-1,0.5c-0.3,0.4-0.4,1.1-0.4,1.6v2.8h-1.1v-5.7h1V94L169.6,94z M177,98
	c-0.2,0.2-0.4,0.5-0.7,0.6c-0.4,0.2-0.8,0.3-1.2,0.3c-0.8,0-1.5-0.3-2-0.8c-0.6-0.6-0.8-1.4-0.8-2.2c0-0.8,0.2-1.6,0.7-2.2
	c0.5-0.6,1.2-0.8,2-0.8c0.4,0,0.9,0.1,1.3,0.3c0.3,0.2,0.5,0.4,0.7,0.6v-0.7h1.1v5.5c0,0.4,0,0.9-0.1,1.3c-0.1,0.3-0.2,0.5-0.4,0.7
	c-0.3,0.3-0.6,0.5-1,0.6c-0.4,0.2-0.9,0.2-1.3,0.2c-0.7,0-1.4-0.1-2-0.6c-0.5-0.4-0.7-1-0.8-1.7v-0.1h1.3v0.2c0,0.4,0.1,0.7,0.4,0.9
	c0.3,0.2,0.8,0.3,1.1,0.3c0.3,0,0.6,0,0.9-0.2c0.2-0.1,0.4-0.3,0.6-0.5c0.1-0.1,0.1-0.3,0.2-0.4c0-0.2,0.1-0.5,0.1-0.8V98L177,98z
	 M179.7,90.6c0-0.2,0.1-0.4,0.2-0.6c0.2-0.2,0.3-0.2,0.6-0.2c0.2,0,0.4,0.1,0.6,0.2c0.2,0.2,0.2,0.3,0.2,0.6c0,0.2-0.1,0.4-0.2,0.6
	c-0.2,0.2-0.3,0.2-0.6,0.2c-0.2,0-0.4-0.1-0.6-0.2C179.7,91,179.7,90.8,179.7,90.6z M179.9,98.8v-5.7h1.2v5.7H179.9z M187,98.1
	c-0.2,0.3-0.4,0.5-0.7,0.6c-0.4,0.2-0.8,0.3-1.2,0.3c-0.8,0-1.5-0.3-2-0.8c-0.6-0.6-0.7-1.4-0.7-2.2c0-0.8,0.2-1.6,0.7-2.2
	c0.5-0.6,1.2-0.8,2-0.8c0.4,0,0.9,0.1,1.2,0.3c0.3,0.2,0.5,0.4,0.7,0.6v-0.8h1.1v5.7H187L187,98.1L187,98.1z M190.9,93.8
	c0.2-0.2,0.4-0.4,0.7-0.6c0.4-0.2,0.8-0.3,1.2-0.3c0.6,0,1.2,0.1,1.6,0.5c0.4,0.4,0.6,0.9,0.6,1.5v3.8h-1.2v-3.3
	c0-0.4-0.1-0.9-0.3-1.2c-0.2-0.3-0.6-0.4-1-0.4c-0.2,0-0.5,0-0.7,0.1c-0.2,0.1-0.4,0.2-0.5,0.4c-0.1,0.1-0.2,0.3-0.2,0.5
	c-0.1,0.3-0.1,0.7-0.1,0.9v2.9h-1.1v-5.7h1.1L190.9,93.8L190.9,93.8z M200.4,98.8v-9h1.3v9H200.4z M204.5,93.8
	c0.2-0.2,0.4-0.4,0.7-0.6c0.4-0.2,0.8-0.3,1.2-0.3c0.6,0,1.2,0.1,1.6,0.5c0.4,0.4,0.6,0.9,0.6,1.5v3.8h-1.2v-3.3
	c0-0.4-0.1-0.9-0.3-1.2c-0.2-0.3-0.6-0.4-1-0.4c-0.2,0-0.5,0-0.7,0.1c-0.2,0.1-0.4,0.2-0.5,0.4c-0.1,0.1-0.2,0.3-0.2,0.5
	c-0.1,0.3-0.1,0.7-0.1,0.9v2.9h-1.1v-5.7h1.1L204.5,93.8L204.5,93.8z M209.6,97.8l1-0.7l0.1,0.1c0.1,0.2,0.3,0.5,0.5,0.6
	c0.2,0.1,0.5,0.2,0.8,0.2c0.2,0,0.5,0,0.7-0.2c0.2-0.1,0.2-0.3,0.2-0.5c0-0.2,0-0.3-0.2-0.4c-0.2-0.2-0.4-0.3-0.6-0.3l-0.2-0.1
	c-0.8-0.3-2.1-0.8-2.1-1.8c0-0.5,0.2-0.9,0.6-1.3c0.4-0.4,0.9-0.5,1.5-0.5c0.4,0,0.9,0.1,1.3,0.3c0.4,0.2,0.6,0.5,0.8,0.9l0,0.1
	l-0.9,0.6l0-0.1c-0.1-0.2-0.2-0.4-0.5-0.5c-0.2-0.1-0.4-0.2-0.7-0.2c-0.2,0-0.4,0.1-0.6,0.2c-0.2,0.1-0.2,0.3-0.2,0.5
	c0,0.4,0.7,0.6,1,0.7c0.1,0,0.2,0.1,0.3,0.1c0.4,0.1,1,0.4,1.3,0.7c0.3,0.3,0.4,0.7,0.4,1c0,0.5-0.2,1-0.6,1.3
	c-0.4,0.4-1,0.5-1.5,0.5c-0.5,0-0.9-0.1-1.4-0.3C210.2,98.5,209.9,98.2,209.6,97.8L209.6,97.8L209.6,97.8z M215.4,94.1h-1v-1h1v-2.2
	h1.2v2.2h1v1h-1v4.7h-1.2V94.1z M218.2,90.6c0-0.2,0.1-0.4,0.2-0.6c0.2-0.2,0.3-0.2,0.6-0.2s0.4,0.1,0.6,0.2
	c0.2,0.2,0.2,0.3,0.2,0.6c0,0.2-0.1,0.4-0.2,0.6c-0.2,0.2-0.3,0.2-0.6,0.2c-0.2,0-0.4-0.1-0.6-0.2C218.3,91,218.2,90.8,218.2,90.6z
	 M218.5,98.8v-5.7h1.2v5.7H218.5z M221.5,94.1h-1v-1h1v-2.2h1.2v2.2h1v1h-1v4.7h-1.2V94.1z M225.6,93.1v2.8c0,0.5,0,1.2,0.3,1.6
	c0.3,0.3,0.7,0.4,1.1,0.4c0.4,0,0.8-0.1,1.1-0.4c0.3-0.4,0.3-1.1,0.3-1.6v-2.8h1.2v3.3c0,0.7-0.2,1.4-0.7,2
	c-0.5,0.5-1.2,0.7-1.9,0.7c-0.7,0-1.4-0.2-1.9-0.7c-0.5-0.5-0.7-1.2-0.7-1.9v-3.3L225.6,93.1L225.6,93.1z M231.4,94.1h-1v-1h1v-2.2
	h1.2v2.2h1v1h-1v4.7h-1.2V94.1z M235.2,96.2c0,0.5,0.1,1,0.5,1.3c0.3,0.4,0.8,0.5,1.2,0.5c0.3,0,0.7-0.1,0.9-0.3
	c0.3-0.2,0.6-0.5,0.8-0.9l0.1-0.1l0.9,0.6l0,0.1c-0.3,0.5-0.6,0.9-1.1,1.2c-0.5,0.3-1,0.4-1.5,0.4c-0.8,0-1.5-0.3-2.1-0.9
	c-0.6-0.6-0.8-1.4-0.8-2.2c0-0.8,0.2-1.6,0.8-2.2c0.6-0.6,1.2-0.9,2-0.9c0.8,0,1.5,0.2,2,0.8c0.6,0.6,0.7,1.4,0.7,2.2v0.3
	L235.2,96.2L235.2,96.2z M243.9,96c0-0.4,0.1-0.8,0.2-1.2c0.2-0.4,0.4-0.7,0.7-1c0.3-0.3,0.6-0.5,1-0.7c0.4-0.2,0.8-0.2,1.2-0.2
	c0.4,0,0.8,0.1,1.2,0.2c0.4,0.2,0.7,0.4,1,0.7c0.3,0.3,0.5,0.6,0.7,1c0.2,0.4,0.2,0.8,0.2,1.2c0,0.4-0.1,0.8-0.2,1.2
	c-0.2,0.4-0.4,0.7-0.7,1c-0.3,0.3-0.6,0.5-1,0.7c-0.4,0.2-0.8,0.2-1.2,0.2c-0.4,0-0.8-0.1-1.2-0.2s-0.7-0.4-1-0.7s-0.5-0.6-0.7-1
	C244,96.8,243.9,96.4,243.9,96L243.9,96z M251.6,94.1h-1.1v-1h1.1v-1.5c0-0.5,0-1.4,0.4-1.9c0.3-0.4,0.8-0.5,1.3-0.5
	c0.1,0,0.3,0,0.4,0c0.1,0,0.3,0.1,0.4,0.1l0.1,0v1.2l-0.2-0.1c-0.1-0.1-0.2-0.1-0.3-0.1c-0.1,0-0.2,0-0.3,0c-0.2,0-0.4,0-0.5,0.2
	c-0.1,0.2-0.1,1-0.1,1.2v1.4h1.5v1h-1.4v4.7h-1.2L251.6,94.1L251.6,94.1z M259.8,94.9v3.9h-1.2v-9h1.9c0.5,0,1,0,1.4,0.1
	c0.3,0.1,0.6,0.2,0.8,0.4c0.3,0.2,0.5,0.5,0.7,0.9c0.2,0.4,0.2,0.8,0.2,1.2s-0.1,0.8-0.2,1.2c-0.2,0.3-0.4,0.6-0.7,0.9
	c-0.2,0.2-0.5,0.3-0.8,0.4c-0.4,0.1-1,0.1-1.4,0.1H259.8L259.8,94.9z M265.6,94c0.2-0.3,0.4-0.5,0.6-0.7c0.3-0.2,0.7-0.3,1.1-0.3
	c0.1,0,0.2,0,0.3,0c0.1,0,0.2,0,0.3,0.1l0.1,0l-0.4,1l-0.1,0c-0.1,0-0.2-0.1-0.3-0.1c-0.1,0-0.2,0-0.3,0c-0.4,0-0.8,0.1-1,0.5
	c-0.3,0.4-0.4,1.1-0.4,1.6v2.8h-1.1v-5.7h1L265.6,94L265.6,94z M268.4,96c0-0.4,0.1-0.8,0.2-1.2c0.2-0.4,0.4-0.7,0.7-1
	c0.3-0.3,0.6-0.5,1-0.7c0.4-0.2,0.8-0.2,1.2-0.2c0.4,0,0.8,0.1,1.2,0.2c0.4,0.2,0.7,0.4,1,0.7c0.3,0.3,0.5,0.6,0.7,1
	c0.2,0.4,0.2,0.8,0.2,1.2c0,0.4-0.1,0.8-0.2,1.2c-0.2,0.4-0.4,0.7-0.7,1c-0.3,0.3-0.6,0.5-1,0.7c-0.4,0.2-0.8,0.2-1.2,0.2
	c-0.4,0-0.8-0.1-1.2-0.2c-0.4-0.2-0.7-0.4-1-0.7c-0.3-0.3-0.5-0.6-0.7-1C268.4,96.8,268.4,96.4,268.4,96L268.4,96z M276,94.1H275v-1
	h1.1v-1.5c0-0.5,0-1.4,0.4-1.9c0.3-0.4,0.8-0.5,1.3-0.5c0.1,0,0.3,0,0.4,0c0.1,0,0.3,0.1,0.4,0.1l0.1,0v1.2l-0.2-0.1
	c-0.1-0.1-0.2-0.1-0.3-0.1c-0.1,0-0.2,0-0.3,0c-0.2,0-0.4,0-0.5,0.2c-0.1,0.2-0.1,1-0.1,1.2v1.4h1.5v1h-1.4v4.7H276L276,94.1
	L276,94.1z M280.1,96.2c0,0.5,0.1,1,0.5,1.3c0.3,0.4,0.8,0.5,1.2,0.5c0.3,0,0.7-0.1,0.9-0.3c0.3-0.2,0.6-0.5,0.8-0.9l0.1-0.1
	l0.9,0.6l0,0.1c-0.3,0.5-0.6,0.9-1.1,1.2c-0.5,0.3-1,0.4-1.5,0.4c-0.8,0-1.5-0.3-2.1-0.9c-0.6-0.6-0.8-1.4-0.8-2.2
	c0-0.8,0.2-1.6,0.8-2.2c0.6-0.6,1.2-0.9,2-0.9c0.8,0,1.5,0.2,2,0.8c0.6,0.6,0.7,1.4,0.7,2.2v0.3L280.1,96.2L280.1,96.2z M286.4,94.6
	c0,0.4,0.7,0.6,1,0.7c0.1,0,0.2,0.1,0.3,0.1c0.4,0.1,1,0.4,1.3,0.7c0.3,0.3,0.4,0.7,0.4,1c0,0.5-0.2,1-0.6,1.3
	c-0.4,0.4-1,0.5-1.5,0.5c-0.5,0-0.9-0.1-1.4-0.3c-0.4-0.2-0.7-0.5-0.9-0.9l0-0.1l1-0.7l0.1,0.1c0.1,0.2,0.3,0.5,0.5,0.6
	c0.2,0.1,0.5,0.2,0.8,0.2c0.2,0,0.5,0,0.7-0.2c0.2-0.1,0.2-0.3,0.2-0.5c0-0.2,0-0.3-0.2-0.4c-0.2-0.2-0.4-0.3-0.6-0.3l-0.2-0.1
	c-0.8-0.3-2.1-0.8-2.1-1.8c0-0.5,0.2-0.9,0.6-1.3c0.4-0.4,0.9-0.5,1.5-0.5c0.4,0,0.9,0.1,1.3,0.3c0.4,0.2,0.6,0.5,0.8,0.9l0,0.1
	l-0.9,0.6l0-0.1c-0.1-0.2-0.2-0.4-0.5-0.5c-0.2-0.1-0.4-0.2-0.7-0.2c-0.2,0-0.4,0.1-0.6,0.2C286.5,94.3,286.4,94.4,286.4,94.6
	L286.4,94.6z M291.4,94.6c0,0.4,0.7,0.6,1,0.7c0.1,0,0.2,0.1,0.3,0.1c0.4,0.1,1,0.4,1.3,0.7c0.3,0.3,0.4,0.7,0.4,1
	c0,0.5-0.2,1-0.6,1.3c-0.4,0.4-1,0.5-1.5,0.5c-0.5,0-0.9-0.1-1.4-0.3c-0.4-0.2-0.7-0.5-0.9-0.9l0-0.1l1-0.7l0.1,0.1
	c0.1,0.2,0.3,0.5,0.5,0.6c0.2,0.1,0.5,0.2,0.8,0.2c0.2,0,0.5,0,0.7-0.2c0.2-0.1,0.2-0.3,0.2-0.5c0-0.2,0-0.3-0.2-0.4
	c-0.2-0.2-0.4-0.3-0.6-0.3l-0.2-0.1c-0.8-0.3-2.1-0.8-2.1-1.8c0-0.5,0.2-0.9,0.6-1.3c0.4-0.4,0.9-0.5,1.5-0.5c0.4,0,0.9,0.1,1.3,0.3
	c0.4,0.2,0.6,0.5,0.8,0.9l0,0.1l-0.9,0.6l0-0.1c-0.1-0.2-0.2-0.4-0.5-0.5c-0.2-0.1-0.4-0.2-0.7-0.2c-0.2,0-0.4,0.1-0.6,0.2
	C291.5,94.3,291.4,94.4,291.4,94.6L291.4,94.6z M295.5,90.6c0-0.2,0.1-0.4,0.2-0.6c0.2-0.2,0.3-0.2,0.6-0.2c0.2,0,0.4,0.1,0.6,0.2
	c0.2,0.2,0.2,0.3,0.2,0.6c0,0.2-0.1,0.4-0.2,0.6c-0.2,0.2-0.3,0.2-0.6,0.2c-0.2,0-0.4-0.1-0.6-0.2C295.5,91,295.4,90.8,295.5,90.6
	L295.5,90.6z M295.7,98.8v-5.7h1.2v5.7H295.7z M298.2,96c0-0.4,0.1-0.8,0.2-1.2c0.2-0.4,0.4-0.7,0.7-1c0.3-0.3,0.6-0.5,1-0.7
	c0.4-0.2,0.8-0.2,1.2-0.2c0.4,0,0.8,0.1,1.2,0.2c0.4,0.2,0.7,0.4,1,0.7c0.3,0.3,0.5,0.6,0.7,1c0.2,0.4,0.2,0.8,0.2,1.2
	c0,0.4-0.1,0.8-0.2,1.2c-0.2,0.4-0.4,0.7-0.7,1c-0.3,0.3-0.6,0.5-1,0.7c-0.4,0.2-0.8,0.2-1.2,0.2c-0.4,0-0.8-0.1-1.2-0.2
	c-0.4-0.2-0.7-0.4-1-0.7c-0.3-0.3-0.5-0.6-0.7-1C298.2,96.8,298.2,96.4,298.2,96L298.2,96z M306.7,93.8c0.2-0.2,0.4-0.4,0.7-0.6
	c0.4-0.2,0.8-0.3,1.2-0.3c0.6,0,1.2,0.1,1.6,0.5c0.4,0.4,0.6,0.9,0.6,1.5v3.8h-1.2v-3.3c0-0.4-0.1-0.9-0.3-1.2
	c-0.2-0.3-0.6-0.4-1-0.4c-0.2,0-0.5,0-0.7,0.1c-0.2,0.1-0.4,0.2-0.5,0.4c-0.1,0.1-0.2,0.3-0.2,0.5c-0.1,0.3-0.1,0.7-0.1,0.9v2.9
	h-1.1v-5.7h1.1L306.7,93.8L306.7,93.8z"/>
</svg>
